<svg width="26" height="26" viewBox="0 0 26 26" fill="none" xmlns="http://www.w3.org/2000/svg">
<path d="M22.0571 21.7355H18.2848V15.8161C18.2848 14.4045 18.2553 12.5905 16.3122 12.5905C14.3451 12.5905 14.0454 14.1216 14.0454 15.7116V21.7347H10.2684V9.56344H13.8964V11.2236H13.945C14.4519 10.2648 15.6849 9.25659 17.5244 9.25659C21.3509 9.25659 22.0611 11.776 22.0611 15.0517V21.7347L22.0571 21.7355ZM6.00112 7.90006C4.78407 7.90006 3.80852 6.91574 3.80852 5.70347C3.80852 4.49519 4.78805 3.51247 6.00112 3.51247C7.21418 3.51247 8.19691 4.49519 8.19691 5.70347C8.19691 6.91574 7.21418 7.90006 6.00112 7.90006ZM7.89324 21.7355H4.1082V9.56424H7.89324V21.7355ZM23.9508 0H2.21129C1.17277 0 0.330322 0.821727 0.330322 1.83872V23.6667C0.330322 24.6837 1.17277 25.5054 2.21129 25.5054H23.9468C24.9837 25.5054 25.835 24.6837 25.835 23.6667V1.83872C25.835 0.821727 24.9837 0 23.9468 0L23.9508 0Z" fill="#3D3B67"/>
</svg>
