<svg width="26" height="26" viewBox="0 0 26 26" fill="none" xmlns="http://www.w3.org/2000/svg">
<path d="M13.2477 0C9.781 0 9.34897 0.0167395 7.99227 0.0741321C6.62999 0.14109 5.70852 0.352327 4.89546 0.667986C4.05689 0.996399 3.34267 1.43242 2.63722 2.14186C1.92699 2.84731 1.48698 3.56153 1.16335 4.4001C0.847688 5.21316 0.636451 6.13463 0.569493 7.49691C0.508115 8.8544 0.495361 9.28564 0.495361 12.7523C0.495361 16.219 0.512101 16.651 0.569493 18.0077C0.636451 19.366 0.847688 20.2915 1.16335 21.1045C1.49176 21.9431 1.92778 22.6573 2.63722 23.3628C3.34267 24.073 4.05689 24.513 4.89546 24.8366C5.70852 25.1483 6.63398 25.3635 7.99227 25.4305C9.34976 25.4919 9.781 25.5046 13.2477 25.5046C16.7143 25.5046 17.1464 25.4879 18.5031 25.4305C19.8614 25.3635 20.7868 25.1475 21.5999 24.8366C22.4385 24.5082 23.1527 24.0722 23.8581 23.3628C24.5684 22.6573 25.0084 21.9471 25.332 21.1045C25.6437 20.2915 25.8589 19.366 25.9259 18.0077C25.9872 16.6502 26 16.219 26 12.7523C26 9.28564 25.9833 8.8536 25.9259 7.49691C25.8589 6.13862 25.6429 5.20838 25.332 4.4001C25.0036 3.56153 24.5676 2.84731 23.8581 2.14186C23.1527 1.43163 22.4424 0.991616 21.5999 0.667986C20.7868 0.352327 19.8614 0.14109 18.5031 0.0741321C17.1456 0.0127539 16.7143 0 13.2477 0ZM13.2477 2.2957C16.6522 2.2957 17.0587 2.31244 18.4042 2.36984C19.6454 2.42803 20.3213 2.63528 20.7701 2.81064C21.3687 3.0426 21.7872 3.31681 22.24 3.76479C22.684 4.20879 22.9582 4.63206 23.1901 5.2307C23.3655 5.67948 23.5728 6.35543 23.631 7.59655C23.6883 8.94209 23.7051 9.34941 23.7051 12.7531C23.7051 16.1568 23.6883 16.5641 23.6262 17.9097C23.5592 19.1508 23.352 19.8268 23.1774 20.2755C22.9359 20.8742 22.6664 21.2927 22.2216 21.7454C21.7729 22.1894 21.3456 22.4636 20.7518 22.6956C20.3086 22.8709 19.623 23.0782 18.3771 23.1364C17.0244 23.1938 16.6259 23.2105 13.2126 23.2105C9.79934 23.2105 9.40158 23.1938 8.04727 23.1316C6.80616 23.0646 6.12143 22.8574 5.67265 22.6828C5.06684 22.4413 4.65154 22.1719 4.20675 21.7271C3.75797 21.2783 3.4726 20.851 3.2526 20.2572C3.07404 19.814 2.86998 19.1285 2.80382 17.8826C2.75838 16.5458 2.73686 16.1313 2.73686 12.734C2.73686 9.33825 2.75838 8.92295 2.80382 7.56945C2.86998 6.32355 3.07404 5.63962 3.2526 5.19483C3.4726 4.58822 3.75877 4.17372 4.20675 3.72494C4.65074 3.28094 5.06684 2.99398 5.67265 2.76919C6.12143 2.59462 6.78942 2.38737 8.03531 2.3252C9.38803 2.27657 9.78658 2.25904 13.1951 2.25904L13.2477 2.2957ZM13.2477 6.20717C9.62796 6.20717 6.70094 9.13818 6.70094 12.7539C6.70094 16.3736 9.63194 19.3007 13.2477 19.3007C16.8674 19.3007 19.7944 16.3696 19.7944 12.7539C19.7944 9.13419 16.8634 6.20717 13.2477 6.20717ZM13.2477 17.0049C10.8978 17.0049 8.99664 15.1038 8.99664 12.7539C8.99664 10.404 10.8978 8.50287 13.2477 8.50287C15.5976 8.50287 17.4987 10.404 17.4987 12.7539C17.4987 15.1038 15.5976 17.0049 13.2477 17.0049ZM21.5887 5.94571C21.5887 6.79305 20.8992 7.47698 20.0559 7.47698C19.2085 7.47698 18.5246 6.79225 18.5246 5.94571C18.5246 5.10316 19.2133 4.41764 20.0559 4.41764C20.8984 4.41764 21.5887 5.10316 21.5887 5.94571Z" fill="#3D3B67"/>
</svg>
