<svg width="26" height="25" viewBox="0 0 26 25" fill="none" xmlns="http://www.w3.org/2000/svg">
<path d="M12.9182 0.000797059C5.87285 0.000797059 0.165039 5.71339 0.165039 12.7539C0.165039 18.3916 3.81881 23.17 8.88259 24.8558C9.52264 24.9762 9.75379 24.5816 9.75379 24.2405C9.75379 23.9376 9.74661 23.1365 9.74183 22.0732C6.19248 22.8416 5.44483 20.3587 5.44483 20.3587C4.86376 18.889 4.02525 18.4944 4.02525 18.4944C2.87109 17.7061 4.11691 17.7228 4.11691 17.7228C5.39541 17.8097 6.06814 19.034 6.06814 19.034C7.20555 20.9852 9.05237 20.4209 9.78328 20.0925C9.89487 19.2708 10.2272 18.7056 10.5891 18.3908C7.75792 18.0712 4.78087 16.9752 4.78087 12.0884C4.78087 10.6927 5.27505 9.55607 6.09205 8.66335C5.95097 8.34372 5.51896 7.0445 6.20444 5.28776C6.20444 5.28776 7.27171 4.94741 9.71154 6.59575C10.7326 6.31279 11.8166 6.17171 12.8998 6.16454C13.9838 6.17171 15.0671 6.31359 16.0881 6.59575C18.5136 4.94741 19.5801 5.28776 19.5801 5.28776C20.2647 7.0445 19.8327 8.34293 19.7084 8.66335C20.5174 9.55607 21.0116 10.6935 21.0116 12.0884C21.0116 16.9863 18.0306 18.0664 15.1962 18.378C15.6393 18.7598 16.0546 19.5449 16.0546 20.7366C16.0546 22.4423 16.0387 23.8164 16.0387 24.2317C16.0387 24.5633 16.2619 24.9618 16.9186 24.8335C22.0199 23.1652 25.6697 18.3828 25.6697 12.7531C25.6697 5.7126 19.9619 0 12.9166 0L12.9182 0.000797059Z" fill="#3D3B67"/>
</svg>
