<svg width="26" height="21" viewBox="0 0 26 21" fill="none" xmlns="http://www.w3.org/2000/svg">
<path d="M25.456 2.60159C24.5179 3.01285 23.5137 3.29579 22.4552 3.42411C23.5352 2.77613 24.3609 1.75117 24.7546 0.530132C23.7416 1.11993 22.621 1.54713 21.4295 1.78863C20.4794 0.771629 19.1213 0.131622 17.6141 0.131622C14.7249 0.131622 12.3833 2.47247 12.3833 5.35768C12.3833 5.77293 12.4335 6.17144 12.5204 6.54922C8.17423 6.34598 4.32144 4.25779 1.74468 1.10319C1.29197 1.87152 1.03453 2.76418 1.03453 3.73574C1.03453 5.55375 1.95987 7.14779 3.35864 8.08508C2.50344 8.06037 1.69845 7.82366 0.993087 7.43392V7.49688C0.993087 10.0322 2.79435 12.1459 5.18541 12.6273C4.74944 12.7429 4.28398 12.8098 3.81135 12.8098C3.4758 12.8098 3.1554 12.7771 2.8358 12.7182C3.50848 14.7936 5.43408 16.3047 7.7295 16.3502C5.94497 17.7489 3.68303 18.5826 1.24574 18.5826C0.830495 18.5826 0.416044 18.5627 0 18.5125C2.32491 19.9949 5.06905 20.8621 8.03316 20.8621C17.6508 20.8621 22.9063 12.8959 22.9063 5.99689C22.9063 5.77691 22.9063 5.55295 22.8896 5.32819C23.9154 4.59732 24.8033 3.67119 25.5046 2.62151L25.456 2.60159Z" fill="#3D3B67"/>
</svg>
