<svg width="34" height="28" viewBox="0 0 34 28" fill="none" xmlns="http://www.w3.org/2000/svg">
<g clip-path="url(#clip0_130_2)">
<path fill-rule="evenodd" clip-rule="evenodd" d="M33.6273 5.13661C33.6209 5.13171 33.616 5.12471 33.6082 5.12121L33.5961 5.11561L23.4698 0.149111C23.4019 0.116939 23.3306 0.0920629 23.2573 0.0749113C23.1664 0.0511704 23.0729 0.0387078 22.9789 0.0378113C22.5908 0.0378113 22.2054 0.228911 21.9958 0.561411L16.1662 9.85391L23.4826 21.5145L33.6585 5.29551C33.6742 5.26993 33.6797 5.23949 33.6739 5.21011C33.6682 5.18074 33.6516 5.15453 33.6273 5.13661ZM12.9553 7.73711V18.3141L22.5405 23.0153L12.9553 7.73711ZM23.9805 23.7216L31.8714 27.5912C32.8984 28.0952 33.73 27.7417 33.73 26.8037V8.18301L23.9805 23.723M11.2907 5.15201L1.40169 0.301011C1.2463 0.220435 1.07421 0.17636 0.898776 0.172211C0.466693 0.172211 0.162109 0.501211 0.162109 1.05281V21.9961C0.162109 22.5561 0.580734 23.2211 1.09215 23.471L9.80252 27.7431C10.0264 27.8523 10.2389 27.9041 10.4308 27.9041C10.9727 27.9041 11.3516 27.4932 11.3516 26.8037V5.24721C11.3517 5.22745 11.3461 5.20807 11.3356 5.19126C11.3251 5.17444 11.31 5.16085 11.2922 5.15201" fill="#3D3B67"/>
</g>
<defs>
<clipPath id="clip0_130_2">
<rect width="34" height="28" fill="white"/>
</clipPath>
</defs>
</svg>
